<?xml version="1.0" encoding="UTF-8" standalone="no"?>
<svg
   xmlns:dc="http://purl.org/dc/elements/1.1/"
   xmlns:cc="http://creativecommons.org/ns#"
   xmlns:rdf="http://www.w3.org/1999/02/22-rdf-syntax-ns#"
   xmlns:svg="http://www.w3.org/2000/svg"
   xmlns="http://www.w3.org/2000/svg"
   xmlns:sodipodi="http://sodipodi.sourceforge.net/DTD/sodipodi-0.dtd"
   xmlns:inkscape="http://www.inkscape.org/namespaces/inkscape"
   height="1024"
   preserveAspectRatio="xMidYMid meet"
   width="1024"
   version="1.1"
   id="svg13"
   sodipodi:docname="facebook-media-social-like-network-fb-icon.svg"
   inkscape:version="0.92.4 (5da689c313, 2019-01-14)">
  <metadata
     id="metadata19">
    <rdf:RDF>
      <cc:Work
         rdf:about="">
        <dc:format>image/svg+xml</dc:format>
        <dc:type
           rdf:resource="http://purl.org/dc/dcmitype/StillImage" />
      </cc:Work>
    </rdf:RDF>
  </metadata>
  <defs
     id="defs17" />
  <sodipodi:namedview
     pagecolor="#ffffff"
     bordercolor="#666666"
     borderopacity="1"
     objecttolerance="10"
     gridtolerance="10"
     guidetolerance="10"
     inkscape:pageopacity="0"
     inkscape:pageshadow="2"
     inkscape:window-width="1920"
     inkscape:window-height="1017"
     id="namedview15"
     showgrid="false"
     inkscape:zoom="0.23046875"
     inkscape:cx="512"
     inkscape:cy="512"
     inkscape:window-x="-8"
     inkscape:window-y="-8"
     inkscape:window-maximized="1"
     inkscape:current-layer="svg13" />
  <g
     id="g836">
    <circle
       r="433.659"
       cy="512.98975"
       cx="512.98193"
       id="path826"
       style="opacity:1;fill:#ffffff;fill-opacity:1;stroke:#ffffff;stroke-width:7.55905533;stroke-linecap:square;stroke-linejoin:round;stroke-miterlimit:4;stroke-dasharray:none;stroke-opacity:1;paint-order:stroke markers fill" />
    <g
       id="g5">
      <title
         id="title2" />
      <rect
         y="-1"
         x="-1"
         width="1026"
         id="canvas_background"
         height="1026"
         fill="none" />
    </g>
    <g
       id="g11">
      <title
         id="title7" />
      <g
         transform="translate(0,1024) scale(0.10000000149011612,-0.10000000149011612) "
         id="svg_1"
         fill="#000000">
        <path
           id="svg_2"
           d="m4869,9439c-559,-33 -1115,-178 -1618,-420c-1221,-588 -2102,-1719 -2371,-3044c-189,-929 -67,-1900 344,-2750c589,-1219 1718,-2097 3041,-2365c929,-189 1900,-67 2750,344c878,424 1597,1143 2021,2021c202,418 335,865 394,1324c109,840 -28,1690 -394,2446c-424,878 -1143,1597 -2021,2021c-665,322 -1407,468 -2146,423zm1769,-2361l-3,-473l-460,-5c-520,-6 -488,0 -544,-88c-57,-91 -61,-122 -61,-494l0,-338l535,0l535,0l0,-445l0,-445l-535,0l-535,0l0,-1330l0,-1330l-515,0l-515,0l0,1330l0,1330l-460,0l-460,0l0,445l0,445l460,0l460,0l0,321c0,349 10,457 56,616c126,434 462,783 857,888c144,39 206,42 715,44l472,1l-2,-472z"
           fill="#3b5998" />
      </g>
    </g>
  </g>
</svg>
